<svg width="203" height="44" viewBox="0 0 203 44" fill="none" xmlns="http://www.w3.org/2000/svg">
<g filter="url(#filter0_d_1_11)">
<path d="M4.96875 27.2031L9.87109 8.60938C11.1992 3.54427 15.5221 1.00521 22.8398 0.992188H33.3672C33.849 0.992188 34.2461 1.17448 34.5586 1.53906C34.8841 1.90365 35.0469 2.32682 35.0469 2.80859V27.2031C35.0469 27.7109 34.8646 28.1406 34.5 28.4922C34.1354 28.8307 33.6992 29 33.1914 29H29.5195C28.9857 29 28.543 28.8307 28.1914 28.4922C27.8529 28.1406 27.6836 27.6979 27.6836 27.1641V22.2422H13.7969L12.4883 27.1641C12.3581 27.6979 12.0651 28.1406 11.6094 28.4922C11.1536 28.8307 10.6719 29 10.1641 29H6.31641C5.80859 29 5.44401 28.8568 5.22266 28.5703C5.0013 28.2708 4.89062 28.0104 4.89062 27.7891C4.90365 27.5677 4.92969 27.3724 4.96875 27.2031ZM15.2422 16.7148H27.6836V6.51953H22.1172C20.8672 6.51953 19.7734 6.8776 18.8359 7.59375C17.9115 8.29688 17.2865 9.2474 16.9609 10.4453L15.2422 16.7148ZM40.6328 27.2031V2.84766C40.6328 2.33984 40.8151 1.90365 41.1797 1.53906C41.5443 1.17448 41.9805 0.992188 42.4883 0.992188H46.1211C46.6549 0.992188 47.0977 1.17448 47.4492 1.53906C47.8138 1.90365 47.9961 2.33984 47.9961 2.84766V27.1641C47.9961 27.6719 47.8073 28.1081 47.4297 28.4727C47.0651 28.8242 46.6289 29 46.1211 29H42.4883C41.9805 29 41.5443 28.8307 41.1797 28.4922C40.8151 28.1406 40.6328 27.7109 40.6328 27.2031ZM57.4492 22.6719C59.207 22.6719 60.0859 23.5573 60.0859 25.3281V26.5586C60.0859 27.3789 59.8581 28.0234 59.4023 28.4922C58.9596 28.9609 58.3086 29.1953 57.4492 29.1953H55.0469C54.1875 29.1953 53.5299 28.9609 53.0742 28.4922C52.6315 28.0234 52.4102 27.3789 52.4102 26.5586V25.3281C52.4102 24.4688 52.638 23.8112 53.0938 23.3555C53.5495 22.8997 54.2005 22.6719 55.0469 22.6719H57.4492ZM64.1094 27.8086V8.80469C64.1094 8.45312 64.2201 8.16667 64.4414 7.94531C64.6758 7.71094 64.9622 7.59375 65.3008 7.59375H69.6758C70.0143 7.59375 70.2943 7.71094 70.5156 7.94531C70.75 8.16667 70.8672 8.45312 70.8672 8.80469V10.0352C73.1068 8.14714 75.4896 7.20312 78.0156 7.20312C80.5547 7.20312 82.6185 7.97786 84.207 9.52734C85.7956 11.0638 86.5898 13.4206 86.5898 16.5977V27.8086C86.5898 28.1471 86.4727 28.4336 86.2383 28.668C86.0169 28.8893 85.7305 29 85.3789 29H81.0234C80.6849 29 80.3984 28.8893 80.1641 28.668C79.9427 28.4336 79.832 28.1471 79.832 27.8086V16.5977C79.832 13.4857 78.5885 11.9297 76.1016 11.9297C74.474 11.9297 72.7292 12.8607 70.8672 14.7227V27.8086C70.8672 28.1471 70.75 28.4336 70.5156 28.668C70.2943 28.8893 70.0143 29 69.6758 29H65.3008C64.9622 29 64.6758 28.8893 64.4414 28.668C64.2201 28.4336 64.1094 28.1471 64.1094 27.8086ZM92.7812 27.5938C91.0625 26.3958 90.2031 24.7031 90.2031 22.5156C90.2031 20.3281 91.0625 18.6484 92.7812 17.4766C94.513 16.3047 96.7396 15.7188 99.4609 15.7188H105.926C105.926 14.1953 105.607 13.1341 104.969 12.5352C104.331 11.9362 103.211 11.6367 101.609 11.6367C100.021 11.6367 98.901 12.0339 98.25 12.8281C97.612 13.6094 96.8242 14 95.8867 14H92.9766C92.625 14 92.332 13.8893 92.0977 13.668C91.8763 13.4336 91.7656 13.1471 91.7656 12.8086C91.7656 9.07161 95.3138 7.20312 102.41 7.20312C105.509 7.20312 107.996 7.89974 109.871 9.29297C111.746 10.6732 112.684 12.8151 112.684 15.7188V27.8086C112.684 28.1602 112.573 28.4466 112.352 28.668C112.13 28.8893 111.844 29 111.492 29H107.723C107.371 29 107.085 28.8893 106.863 28.668C106.642 28.4336 106.531 28.1471 106.531 27.8086V27.2031C104.474 28.6745 102.098 29.4036 99.4023 29.3906C96.7201 29.3906 94.513 28.7917 92.7812 27.5938ZM99.9297 20.1523C99.0182 20.1523 98.2956 20.3737 97.7617 20.8164C97.2409 21.2591 96.9805 21.832 96.9805 22.5352C96.9805 23.2383 97.2539 23.8177 97.8008 24.2734C98.3477 24.7292 99.1224 24.957 100.125 24.957C102.13 24.957 104.064 24.3711 105.926 23.1992V20.1523H99.9297ZM117.508 27.8086V2.20312C117.508 1.85156 117.618 1.5651 117.84 1.34375C118.074 1.10938 118.361 0.992188 118.699 0.992188H123.074C123.413 0.992188 123.693 1.10938 123.914 1.34375C124.148 1.5651 124.266 1.85156 124.266 2.20312V27.8086C124.266 28.1471 124.148 28.4336 123.914 28.668C123.693 28.8893 123.413 29 123.074 29H118.699C118.361 29 118.074 28.8893 117.84 28.668C117.618 28.4336 117.508 28.1471 117.508 27.8086ZM133.23 31.0312L135.789 31.3633C137.625 31.3633 138.908 30.0156 139.637 27.3203C137.423 27.3203 135.574 26.6562 134.09 25.3281C132.605 23.987 131.329 21.6107 130.262 18.1992L127.352 8.76562C127.312 8.66146 127.293 8.54427 127.293 8.41406C127.293 8.27083 127.371 8.10156 127.527 7.90625C127.697 7.71094 127.944 7.60677 128.27 7.59375H132.352C132.729 7.59375 133.087 7.72396 133.426 7.98438C133.777 8.23177 134.005 8.54427 134.109 8.92188L136.668 17.2031C137.306 19.2344 137.951 20.6406 138.602 21.4219C139.266 22.2031 140.047 22.5938 140.945 22.5938L144.832 8.92188C144.936 8.54427 145.138 8.23177 145.438 7.98438C145.75 7.72396 146.095 7.59375 146.473 7.59375H150.594C150.919 7.59375 151.16 7.69792 151.316 7.90625C151.473 8.11458 151.551 8.29036 151.551 8.43359C151.551 8.5638 151.538 8.67448 151.512 8.76562L146.395 27.0078C145.483 30.237 144.35 32.5417 142.996 33.9219C141.655 35.3021 139.923 35.9922 137.801 35.9922C135.678 35.9922 134.174 35.9141 133.289 35.7578C132.417 35.6016 131.87 35.4062 131.648 35.1719C131.427 34.9505 131.316 34.6901 131.316 34.3906V32.2422C131.316 31.8906 131.427 31.5977 131.648 31.3633C131.87 31.1419 132.156 31.0312 132.508 31.0312H133.23ZM152.938 11.1289V8.80469C152.938 8.45312 153.048 8.16667 153.27 7.94531C153.504 7.71094 153.797 7.59375 154.148 7.59375H171.941C172.293 7.59375 172.579 7.71094 172.801 7.94531C173.022 8.16667 173.133 8.45312 173.133 8.80469V10.6797C173.133 11.6432 172.671 12.5872 171.746 13.5117L161.102 24.2734H172.098C172.449 24.2734 172.736 24.3906 172.957 24.625C173.191 24.8464 173.309 25.1328 173.309 25.4844V27.8086C173.309 28.1471 173.191 28.4336 172.957 28.668C172.736 28.8893 172.449 29 172.098 29H154.148C153.797 29 153.504 28.8893 153.27 28.668C153.048 28.4336 152.938 28.1471 152.938 27.8086V25.9141C152.938 24.9635 153.406 24.0195 154.344 23.082L164.617 12.3203H154.148C153.797 12.3203 153.504 12.2096 153.27 11.9883C153.048 11.7539 152.938 11.4674 152.938 11.1289ZM178.523 26.5391C176.518 24.638 175.516 21.9036 175.516 18.3359C175.516 14.7552 176.525 12.0078 178.543 10.0938C180.561 8.16667 183.361 7.20312 186.941 7.20312C190.522 7.20312 193.315 8.14062 195.32 10.0156C197.326 11.8776 198.328 14.5534 198.328 18.043V19.1562C198.328 19.5078 198.211 19.8008 197.977 20.0352C197.755 20.2565 197.469 20.3672 197.117 20.3672H182.41C182.54 21.9688 182.996 23.1341 183.777 23.8633C184.572 24.5924 185.835 24.957 187.566 24.957C189.298 24.957 190.483 24.5664 191.121 23.7852C191.759 23.0039 192.547 22.6068 193.484 22.5938H196.395C196.746 22.5938 197.033 22.7109 197.254 22.9453C197.488 23.1667 197.605 23.4531 197.605 23.8047C197.605 27.5417 194.044 29.4036 186.922 29.3906C183.328 29.3906 180.529 28.4401 178.523 26.5391ZM182.371 16.2461H191.453C191.323 13.1732 189.812 11.6367 186.922 11.6367C184.044 11.6367 182.527 13.1732 182.371 16.2461Z" fill="black"/>
<path d="M4.96875 27.2031L4.00179 26.9482L3.99784 26.9632L3.99436 26.9783L4.96875 27.2031ZM9.87109 8.60938L10.8381 8.86432L10.8384 8.86301L9.87109 8.60938ZM22.8398 0.992188L22.8398 -0.00781408L22.8381 -0.00781092L22.8398 0.992188ZM34.5586 1.53906L33.7993 2.18985L33.8059 2.19753L33.8127 2.20508L34.5586 1.53906ZM34.5 28.4922L35.1805 29.225L35.1874 29.2186L35.1941 29.212L34.5 28.4922ZM28.1914 28.4922L27.4711 29.1858L27.4842 29.1994L27.4978 29.2125L28.1914 28.4922ZM27.6836 22.2422H28.6836V21.2422H27.6836V22.2422ZM13.7969 22.2422V21.2422H13.028L12.8304 21.9852L13.7969 22.2422ZM12.4883 27.1641L11.5219 26.9071L11.5192 26.9171L11.5168 26.9271L12.4883 27.1641ZM11.6094 28.4922L12.2057 29.2949L12.213 29.2895L12.2202 29.284L11.6094 28.4922ZM5.22266 28.5703L4.41848 29.1647L4.42483 29.1733L4.43137 29.1818L5.22266 28.5703ZM4.89062 27.7891L3.89235 27.7303L3.89062 27.7597V27.7891H4.89062ZM15.2422 16.7148L14.2778 16.4505L13.9311 17.7148H15.2422V16.7148ZM27.6836 16.7148V17.7148H28.6836V16.7148H27.6836ZM27.6836 6.51953H28.6836V5.51953H27.6836V6.51953ZM18.8359 7.59375L19.4413 8.3897L19.443 8.38842L18.8359 7.59375ZM16.9609 10.4453L17.9254 10.7097L17.9259 10.7075L16.9609 10.4453ZM5.93571 27.4581L10.838 8.86432L8.90414 8.35443L4.00179 26.9482L5.93571 27.4581ZM10.8384 8.86301C11.4387 6.57363 12.6935 4.89761 14.6158 3.76852C16.5696 2.62095 19.2838 1.99852 22.8416 1.99219L22.8381 -0.00781092C19.0781 -0.00112065 15.972 0.652492 13.6029 2.04398C11.2024 3.45395 9.63162 5.58002 8.90379 8.35574L10.8384 8.86301ZM22.8398 1.99219H33.3672V-0.0078125H22.8398V1.99219ZM33.3672 1.99219C33.5581 1.99219 33.6775 2.04776 33.7993 2.18985L35.3179 0.888271C34.8146 0.301198 34.1398 -0.0078125 33.3672 -0.0078125V1.99219ZM33.8127 2.20508C33.9772 2.38934 34.0469 2.5764 34.0469 2.80859H36.0469C36.0469 2.07724 35.7911 1.41796 35.3045 0.873047L33.8127 2.20508ZM34.0469 2.80859V27.2031H36.0469V2.80859H34.0469ZM34.0469 27.2031C34.0469 27.4402 33.9744 27.6098 33.8059 27.7723L35.1941 29.212C35.7548 28.6714 36.0469 27.9816 36.0469 27.2031H34.0469ZM33.8195 27.7594C33.6441 27.9223 33.4526 28 33.1914 28V30C33.9458 30 34.6267 29.7392 35.1805 29.225L33.8195 27.7594ZM33.1914 28H29.5195V30H33.1914V28ZM29.5195 28C29.2178 28 29.032 27.9134 28.885 27.7719L27.4978 29.2125C28.054 29.7481 28.7535 30 29.5195 30V28ZM28.9117 27.7985C28.7702 27.6516 28.6836 27.4658 28.6836 27.1641H26.6836C26.6836 27.9301 26.9355 28.6296 27.4711 29.1858L28.9117 27.7985ZM28.6836 27.1641V22.2422H26.6836V27.1641H28.6836ZM27.6836 21.2422H13.7969V23.2422H27.6836V21.2422ZM12.8304 21.9852L11.5219 26.9071L13.4547 27.421L14.7633 22.4991L12.8304 21.9852ZM11.5168 26.9271C11.443 27.2294 11.2838 27.4804 10.9986 27.7004L12.2202 29.284C12.8464 28.8009 13.2731 28.1664 13.4598 27.401L11.5168 26.9271ZM11.0131 27.6894C10.7084 27.9158 10.4319 28 10.1641 28V30C10.9118 30 11.5989 29.7457 12.2057 29.2949L11.0131 27.6894ZM10.1641 28H6.31641V30H10.1641V28ZM6.31641 28C6.15234 28 6.0647 27.9763 6.02776 27.9618C5.99931 27.9506 6.00517 27.9475 6.01394 27.9589L4.43137 29.1818C4.91036 29.8016 5.63093 30 6.31641 30V28ZM6.02683 27.9759C5.94899 27.8706 5.91081 27.7989 5.89396 27.7592C5.87715 27.7197 5.89062 27.7336 5.89062 27.7891H3.89062C3.89062 28.3268 4.14848 28.7994 4.41848 29.1647L6.02683 27.9759ZM5.8889 27.8478C5.89948 27.6679 5.91957 27.5301 5.94314 27.428L3.99436 26.9783C3.9398 27.2147 3.90781 27.4675 3.89235 27.7303L5.8889 27.8478ZM15.2422 17.7148H27.6836V15.7148H15.2422V17.7148ZM28.6836 16.7148V6.51953H26.6836V16.7148H28.6836ZM27.6836 5.51953H22.1172V7.51953H27.6836V5.51953ZM22.1172 5.51953C20.6618 5.51953 19.3515 5.94152 18.2289 6.79908L19.443 8.38842C20.1954 7.81369 21.0726 7.51953 22.1172 7.51953V5.51953ZM18.2306 6.7978C17.1182 7.64381 16.375 8.7881 15.9959 10.1831L17.9259 10.7075C18.1979 9.70669 18.7047 8.94994 19.4413 8.3897L18.2306 6.7978ZM15.9965 10.1809L14.2778 16.4505L16.2066 16.9792L17.9254 10.7097L15.9965 10.1809ZM47.4492 1.53906L46.7294 2.2332L46.7357 2.23974L46.7421 2.24617L47.4492 1.53906ZM47.4297 28.4727L48.1238 29.1925L48.1243 29.1921L47.4297 28.4727ZM41.1797 28.4922L40.4856 29.212L40.4923 29.2186L40.4992 29.225L41.1797 28.4922ZM41.6328 27.2031V2.84766H39.6328V27.2031H41.6328ZM41.6328 2.84766C41.6328 2.60959 41.7065 2.42644 41.8868 2.24617L40.4726 0.831956C39.9237 1.38085 39.6328 2.0701 39.6328 2.84766H41.6328ZM41.8868 2.24617C42.0671 2.06589 42.2502 1.99219 42.4883 1.99219V-0.0078125C41.7107 -0.0078125 41.0215 0.283064 40.4726 0.831956L41.8868 2.24617ZM42.4883 1.99219H46.1211V-0.0078125H42.4883V1.99219ZM46.1211 1.99219C46.3998 1.99219 46.5774 2.07558 46.7294 2.2332L48.1691 0.844927C47.6179 0.273383 46.9101 -0.0078125 46.1211 -0.0078125V1.99219ZM46.7421 2.24617C46.9224 2.42644 46.9961 2.60959 46.9961 2.84766H48.9961C48.9961 2.0701 48.7052 1.38085 48.1563 0.831956L46.7421 2.24617ZM46.9961 2.84766V27.1641H48.9961V2.84766H46.9961ZM46.9961 27.1641C46.9961 27.3905 46.9249 27.57 46.7351 27.7533L48.1243 29.1921C48.6897 28.6462 48.9961 27.9533 48.9961 27.1641H46.9961ZM46.7356 27.7528C46.5579 27.9241 46.3707 28 46.1211 28V30C46.8871 30 47.5723 29.7243 48.1238 29.1925L46.7356 27.7528ZM46.1211 28H42.4883V30H46.1211V28ZM42.4883 28C42.2271 28 42.0356 27.9223 41.8601 27.7594L40.4992 29.225C41.053 29.7392 41.7338 30 42.4883 30V28ZM41.8738 27.7723C41.7053 27.6098 41.6328 27.4402 41.6328 27.2031H39.6328C39.6328 27.9816 39.9249 28.6714 40.4856 29.212L41.8738 27.7723ZM59.4023 28.4922L58.6853 27.7951L58.6803 27.8003L58.6753 27.8056L59.4023 28.4922ZM53.0742 28.4922L52.3472 29.1788L52.3522 29.1841L52.3572 29.1893L53.0742 28.4922ZM53.0938 23.3555L52.3866 22.6484L53.0938 23.3555ZM57.4492 23.6719C58.1721 23.6719 58.531 23.853 58.717 24.0404C58.9044 24.2292 59.0859 24.595 59.0859 25.3281H61.0859C61.0859 24.2904 60.828 23.3281 60.1365 22.6314C59.4436 21.9335 58.4841 21.6719 57.4492 21.6719V23.6719ZM59.0859 25.3281V26.5586H61.0859V25.3281H59.0859ZM59.0859 26.5586C59.0859 27.1882 58.9162 27.5576 58.6853 27.7951L60.1193 29.1893C60.7999 28.4892 61.0859 27.5696 61.0859 26.5586H59.0859ZM58.6753 27.8056C58.4784 28.0141 58.1289 28.1953 57.4492 28.1953V30.1953C58.4882 30.1953 59.4409 29.9078 60.1294 29.1788L58.6753 27.8056ZM57.4492 28.1953H55.0469V30.1953H57.4492V28.1953ZM55.0469 28.1953C54.369 28.1953 54.0048 28.0148 53.7912 27.7951L52.3572 29.1893C53.0551 29.9071 54.006 30.1953 55.0469 30.1953V28.1953ZM53.8012 27.8056C53.5779 27.5691 53.4102 27.1959 53.4102 26.5586H51.4102C51.4102 27.5619 51.6851 28.4778 52.3472 29.1788L53.8012 27.8056ZM53.4102 26.5586V25.3281H51.4102V26.5586H53.4102ZM53.4102 25.3281C53.4102 24.6426 53.5887 24.2748 53.8009 24.0626L52.3866 22.6484C51.6874 23.3476 51.4102 24.2949 51.4102 25.3281H53.4102ZM53.8009 24.0626C54.0158 23.8477 54.3795 23.6719 55.0469 23.6719V21.6719C54.0216 21.6719 53.0832 21.9518 52.3866 22.6484L53.8009 24.0626ZM55.0469 23.6719H57.4492V21.6719H55.0469V23.6719ZM64.4414 7.94531L65.1485 8.65242L64.4414 7.94531ZM70.5156 7.94531L69.7886 8.63194L69.8082 8.65271L69.829 8.67233L70.5156 7.94531ZM70.8672 10.0352H69.8672V12.1861L71.5117 10.7997L70.8672 10.0352ZM84.207 9.52734L83.5088 10.2432L83.5118 10.2461L84.207 9.52734ZM86.2383 28.668L85.5312 27.9609L86.2383 28.668ZM80.1641 28.668L79.437 29.3546L79.4567 29.3754L79.4774 29.395L80.1641 28.668ZM70.8672 14.7227L70.1601 14.0155L69.8672 14.3084V14.7227H70.8672ZM70.5156 28.668L69.8085 27.9609L70.5156 28.668ZM64.4414 28.668L63.7144 29.3546L63.734 29.3754L63.7548 29.395L64.4414 28.668ZM65.1094 27.8086V8.80469H63.1094V27.8086H65.1094ZM65.1094 8.80469C65.1094 8.6827 65.1385 8.66245 65.1485 8.65242L63.7343 7.23821C63.3016 7.67088 63.1094 8.22355 63.1094 8.80469H65.1094ZM65.1485 8.65242C65.1909 8.61003 65.2211 8.59375 65.3008 8.59375V6.59375C64.7034 6.59375 64.1607 6.81185 63.7343 7.23821L65.1485 8.65242ZM65.3008 8.59375H69.6758V6.59375H65.3008V8.59375ZM69.6758 8.59375C69.7278 8.59375 69.7492 8.60228 69.7535 8.60408C69.7567 8.60542 69.7678 8.60987 69.7886 8.63194L71.2426 7.25869C70.822 6.8133 70.274 6.59375 69.6758 6.59375V8.59375ZM69.829 8.67233C69.8471 8.68938 69.8513 8.6989 69.8537 8.7048C69.8569 8.71262 69.8672 8.74121 69.8672 8.80469H71.8672C71.8672 8.20568 71.6559 7.64676 71.2022 7.2183L69.829 8.67233ZM69.8672 8.80469V10.0352H71.8672V8.80469H69.8672ZM71.5117 10.7997C73.6013 9.03814 75.7624 8.20312 78.0156 8.20312V6.20312C75.2168 6.20312 72.6122 7.25613 70.2226 9.27059L71.5117 10.7997ZM78.0156 8.20312C80.3345 8.20312 82.1343 8.90247 83.5088 10.2432L84.9053 8.81149C83.1027 7.05326 80.7749 6.20312 78.0156 6.20312V8.20312ZM83.5118 10.2461C84.8336 11.5246 85.5898 13.5718 85.5898 16.5977H87.5898C87.5898 13.2693 86.7575 10.603 84.9023 8.80855L83.5118 10.2461ZM85.5898 16.5977V27.8086H87.5898V16.5977H85.5898ZM85.5898 27.8086C85.5898 27.8883 85.5736 27.9185 85.5312 27.9609L86.9454 29.3751C87.3717 28.9487 87.5898 28.406 87.5898 27.8086H85.5898ZM85.5312 27.9609C85.5211 27.9709 85.5009 28 85.3789 28V30C85.96 30 86.5127 29.8077 86.9454 29.3751L85.5312 27.9609ZM85.3789 28H81.0234V30H85.3789V28ZM81.0234 28C80.9261 28 80.8894 27.9775 80.8507 27.941L79.4774 29.395C79.9075 29.8011 80.4437 30 81.0234 30V28ZM80.8911 27.9813C80.8545 27.9426 80.832 27.9059 80.832 27.8086H78.832C78.832 28.3883 79.0309 28.9246 79.437 29.3546L80.8911 27.9813ZM80.832 27.8086V16.5977H78.832V27.8086H80.832ZM80.832 16.5977C80.832 14.935 80.5042 13.503 79.6806 12.4724C78.8228 11.399 77.5661 10.9297 76.1016 10.9297V12.9297C77.124 12.9297 77.7326 13.2384 78.1182 13.721C78.5381 14.2463 78.832 15.1483 78.832 16.5977H80.832ZM76.1016 10.9297C74.0849 10.9297 72.0986 12.077 70.1601 14.0155L71.5743 15.4298C73.3597 13.6443 74.8631 12.9297 76.1016 12.9297V10.9297ZM69.8672 14.7227V27.8086H71.8672V14.7227H69.8672ZM69.8672 27.8086C69.8672 27.8883 69.8509 27.9185 69.8085 27.9609L71.2227 29.3751C71.6491 28.9487 71.8672 28.406 71.8672 27.8086H69.8672ZM69.8085 27.9609C69.7906 27.9788 69.7797 27.984 69.772 27.987C69.7628 27.9907 69.7348 28 69.6758 28V30C70.2557 30 70.7976 29.8002 71.2227 29.3751L69.8085 27.9609ZM69.6758 28H65.3008V30H69.6758V28ZM65.3008 28C65.2035 28 65.1668 27.9775 65.128 27.941L63.7548 29.395C64.1848 29.8011 64.721 30 65.3008 30V28ZM65.1684 27.9813C65.1318 27.9426 65.1094 27.9059 65.1094 27.8086H63.1094C63.1094 28.3883 63.3083 28.9246 63.7144 29.3546L65.1684 27.9813ZM92.7812 27.5938L92.2095 28.4142L92.2124 28.4162L92.7812 27.5938ZM92.7812 17.4766L92.2208 16.6484L92.2179 16.6503L92.7812 17.4766ZM105.926 15.7188V16.7188H106.926V15.7188H105.926ZM98.25 12.8281L97.4766 12.1942L97.4755 12.1956L98.25 12.8281ZM92.0977 13.668L91.3706 14.3546L91.3903 14.3754L91.411 14.395L92.0977 13.668ZM109.871 9.29297L109.275 10.0956L109.278 10.0983L109.871 9.29297ZM106.863 28.668L106.136 29.3546L106.146 29.365L106.156 29.3751L106.863 28.668ZM106.531 27.2031H107.531V25.2585L105.95 26.3897L106.531 27.2031ZM99.4023 29.3906L99.4072 28.3906H99.4023V29.3906ZM97.7617 20.8164L97.1233 20.0466L97.1141 20.0545L97.7617 20.8164ZM97.8008 24.2734L98.441 23.5052L97.8008 24.2734ZM105.926 23.1992L106.458 24.0456L106.926 23.7514V23.1992H105.926ZM105.926 20.1523H106.926V19.1523H105.926V20.1523ZM93.353 26.7734C91.9163 25.772 91.2031 24.3932 91.2031 22.5156H89.2031C89.2031 25.013 90.2087 27.0196 92.2095 28.4141L93.353 26.7734ZM91.2031 22.5156C91.2031 20.6385 91.9154 19.2772 93.3446 18.3028L92.2179 16.6503C90.2096 18.0196 89.2031 20.0177 89.2031 22.5156H91.2031ZM93.3417 18.3048C94.8647 17.2742 96.8797 16.7188 99.4609 16.7188V14.7188C96.5994 14.7188 94.1613 15.3352 92.2208 16.6484L93.3417 18.3048ZM99.4609 16.7188H105.926V14.7188H99.4609V16.7188ZM106.926 15.7188C106.926 14.1107 106.599 12.6941 105.653 11.8061L104.284 13.2642C104.614 13.5742 104.926 14.2799 104.926 15.7188H106.926ZM105.653 11.8061C104.727 10.9364 103.276 10.6367 101.609 10.6367V12.6367C103.146 12.6367 103.935 12.936 104.284 13.2642L105.653 11.8061ZM101.609 10.6367C99.8863 10.6367 98.402 11.0652 97.4766 12.1942L99.0234 13.4621C99.4001 13.0025 100.155 12.6367 101.609 12.6367V10.6367ZM97.4755 12.1956C97.0109 12.7645 96.4988 13 95.8867 13V15C97.1496 15 98.2131 14.4543 99.0245 13.4607L97.4755 12.1956ZM95.8867 13H92.9766V15H95.8867V13ZM92.9766 13C92.8551 13 92.8155 12.9704 92.7843 12.941L91.411 14.395C91.8486 14.8082 92.3949 15 92.9766 15V13ZM92.8247 12.9813C92.7881 12.9426 92.7656 12.9059 92.7656 12.8086H90.7656C90.7656 13.3883 90.9645 13.9246 91.3706 14.3546L92.8247 12.9813ZM92.7656 12.8086C92.7656 12.039 92.946 11.4121 93.2759 10.891C93.6081 10.3662 94.1281 9.89193 94.8927 9.4893C96.4514 8.66849 98.9172 8.20312 102.41 8.20312V6.20312C98.8068 6.20312 95.9503 6.67201 93.9608 7.71968C92.9513 8.2513 92.1408 8.94484 91.586 9.82136C91.0287 10.7017 90.7656 11.7097 90.7656 12.8086H92.7656ZM102.41 8.20312C105.364 8.20312 107.621 8.86668 109.275 10.0956L110.468 8.4903C108.371 6.93279 105.654 6.20312 102.41 6.20312V8.20312ZM109.278 10.0983C110.834 11.2436 111.684 13.0455 111.684 15.7188H113.684C113.684 12.5847 112.658 10.1028 110.464 8.48763L109.278 10.0983ZM111.684 15.7188V27.8086H113.684V15.7188H111.684ZM111.684 27.8086C111.684 27.9306 111.654 27.9508 111.644 27.9609L113.059 29.3751C113.491 28.9424 113.684 28.3897 113.684 27.8086H111.684ZM111.644 27.9609C111.634 27.9709 111.614 28 111.492 28V30C112.073 30 112.626 29.8077 113.059 29.3751L111.644 27.9609ZM111.492 28H107.723V30H111.492V28ZM107.723 28C107.601 28 107.58 27.9709 107.57 27.9609L106.156 29.3751C106.589 29.8077 107.142 30 107.723 30V28ZM107.59 27.9813C107.554 27.9426 107.531 27.9059 107.531 27.8086H105.531C105.531 28.3883 105.73 28.9246 106.136 29.3546L107.59 27.9813ZM107.531 27.8086V27.2031H105.531V27.8086H107.531ZM105.95 26.3897C104.075 27.7305 101.907 28.4027 99.4072 28.3906L99.3975 30.3906C102.288 30.4046 104.873 29.6184 107.113 28.0165L105.95 26.3897ZM99.4023 28.3906C96.8677 28.3906 94.8742 27.8256 93.3501 26.7713L92.2124 28.4162C94.1519 29.7578 96.5724 30.3906 99.4023 30.3906V28.3906ZM99.9297 19.1523C98.8592 19.1523 97.8864 19.4139 97.1234 20.0466L98.4001 21.5862C98.7047 21.3335 99.1773 21.1523 99.9297 21.1523V19.1523ZM97.1141 20.0545C96.3625 20.6933 95.9805 21.5483 95.9805 22.5352H97.9805C97.9805 22.1157 98.1193 21.8249 98.4094 21.5783L97.1141 20.0545ZM95.9805 22.5352C95.9805 23.5393 96.389 24.3987 97.1606 25.0417L98.441 23.5052C98.1188 23.2367 97.9805 22.9373 97.9805 22.5352H95.9805ZM97.1606 25.0417C97.9483 25.6981 98.9827 25.957 100.125 25.957V23.957C99.2621 23.957 98.747 23.7603 98.441 23.5052L97.1606 25.0417ZM100.125 25.957C102.337 25.957 104.453 25.3077 106.458 24.0456L105.393 22.3529C103.675 23.4345 101.924 23.957 100.125 23.957V25.957ZM106.926 23.1992V20.1523H104.926V23.1992H106.926ZM105.926 19.1523H99.9297V21.1523H105.926V19.1523ZM117.84 1.34375L118.547 2.05086L117.84 1.34375ZM123.914 1.34375L123.187 2.03037L123.207 2.05115L123.227 2.07076L123.914 1.34375ZM123.914 28.668L123.207 27.9609L123.914 28.668ZM117.84 28.668L117.113 29.3546L117.132 29.3754L117.153 29.395L117.84 28.668ZM118.508 27.8086V2.20312H116.508V27.8086H118.508ZM118.508 2.20312C118.508 2.08114 118.537 2.06089 118.547 2.05086L117.133 0.636643C116.7 1.06932 116.508 1.62199 116.508 2.20312H118.508ZM118.547 2.05086C118.589 2.00846 118.62 1.99219 118.699 1.99219V-0.0078125C118.102 -0.0078125 117.559 0.210285 117.133 0.636643L118.547 2.05086ZM118.699 1.99219H123.074V-0.0078125H118.699V1.99219ZM123.074 1.99219C123.126 1.99219 123.148 2.00072 123.152 2.00252C123.155 2.00386 123.166 2.0083 123.187 2.03037L124.641 0.657126C124.22 0.21174 123.672 -0.0078125 123.074 -0.0078125V1.99219ZM123.227 2.07076C123.245 2.08782 123.25 2.09733 123.252 2.10324C123.255 2.11106 123.266 2.13965 123.266 2.20312H125.266C125.266 1.60411 125.054 1.0452 124.601 0.616737L123.227 2.07076ZM123.266 2.20312V27.8086H125.266V2.20312H123.266ZM123.266 27.8086C123.266 27.8883 123.249 27.9185 123.207 27.9609L124.621 29.3751C125.048 28.9487 125.266 28.406 125.266 27.8086H123.266ZM123.207 27.9609C123.189 27.9788 123.178 27.984 123.17 27.987C123.161 27.9907 123.133 28 123.074 28V30C123.654 30 124.196 29.8002 124.621 29.3751L123.207 27.9609ZM123.074 28H118.699V30H123.074V28ZM118.699 28C118.602 28 118.565 27.9775 118.526 27.941L117.153 29.395C117.583 29.8011 118.119 30 118.699 30V28ZM118.567 27.9813C118.53 27.9426 118.508 27.9059 118.508 27.8086H116.508C116.508 28.3883 116.707 28.9246 117.113 29.3546L118.567 27.9813ZM133.23 31.0312L133.359 30.0396L133.295 30.0312H133.23V31.0312ZM135.789 31.3633L135.66 32.355L135.724 32.3633H135.789V31.3633ZM139.637 27.3203L140.602 27.5815L140.943 26.3203H139.637V27.3203ZM134.09 25.3281L133.419 26.0701L133.423 26.0734L134.09 25.3281ZM130.262 18.1992L129.306 18.494L129.307 18.4979L130.262 18.1992ZM127.352 8.76562L128.307 8.47084L128.298 8.44239L128.288 8.4145L127.352 8.76562ZM127.527 7.90625L126.772 7.25132L126.759 7.26619L126.746 7.28155L127.527 7.90625ZM128.27 7.59375V6.59375H128.25L128.23 6.59455L128.27 7.59375ZM133.426 7.98438L132.816 8.777L132.833 8.78995L132.85 8.80218L133.426 7.98438ZM134.109 8.92188L133.145 9.1878L133.149 9.2025L133.154 9.21707L134.109 8.92188ZM136.668 17.2031L135.713 17.4983L135.714 17.5028L136.668 17.2031ZM138.602 21.4219L137.833 22.0621L137.84 22.0695L138.602 21.4219ZM140.945 22.5938V23.5938H141.701L141.907 22.8672L140.945 22.5938ZM144.832 8.92188L145.794 9.19533L145.796 9.1878L144.832 8.92188ZM145.438 7.98438L146.074 8.75534L146.078 8.7526L145.438 7.98438ZM151.512 8.76562L150.55 8.4909L150.549 8.49554L151.512 8.76562ZM146.395 27.0078L147.357 27.2795L147.357 27.2779L146.395 27.0078ZM142.996 33.9219L142.282 33.2215L142.279 33.225L142.996 33.9219ZM133.289 35.7578L133.113 36.7422L133.115 36.7426L133.289 35.7578ZM131.648 35.1719L132.375 34.4853L132.366 34.4749L132.356 34.4648L131.648 35.1719ZM131.648 31.3633L130.941 30.6562L130.931 30.6663L130.921 30.6767L131.648 31.3633ZM133.102 32.0229L135.66 32.355L135.918 30.3716L133.359 30.0396L133.102 32.0229ZM135.789 32.3633C136.985 32.3633 138.025 31.9111 138.852 31.0419C139.652 30.2022 140.214 29.0156 140.602 27.5815L138.671 27.0592C138.33 28.3203 137.887 29.1553 137.404 29.6631C136.948 30.1416 136.429 30.3633 135.789 30.3633V32.3633ZM139.637 26.3203C137.64 26.3203 136.037 25.7283 134.757 24.5829L133.423 26.0734C135.112 27.5842 137.207 28.3203 139.637 28.3203V26.3203ZM134.76 24.5861C133.476 23.4259 132.267 21.2571 131.216 17.9005L129.307 18.4979C130.392 21.9643 131.735 24.5481 133.419 26.0701L134.76 24.5861ZM131.217 17.9044L128.307 8.47084L126.396 9.06041L129.306 18.494L131.217 17.9044ZM128.288 8.4145C128.297 8.43997 128.293 8.44441 128.293 8.41406H126.293C126.293 8.64413 126.328 8.88295 126.415 9.11675L128.288 8.4145ZM128.293 8.41406C128.293 8.52385 128.264 8.59 128.26 8.59875C128.255 8.60762 128.265 8.58544 128.308 8.53095L126.746 7.28155C126.543 7.53528 126.293 7.92785 126.293 8.41406H128.293ZM128.283 8.56118C128.275 8.5708 128.264 8.58049 128.253 8.58887C128.241 8.59717 128.232 8.60157 128.228 8.60328C128.22 8.60645 128.242 8.59566 128.309 8.59295L128.23 6.59455C127.705 6.61555 127.166 6.79584 126.772 7.25132L128.283 8.56118ZM128.27 8.59375H132.352V6.59375H128.27V8.59375ZM132.352 8.59375C132.48 8.59375 132.628 8.63253 132.816 8.777L134.035 7.19175C133.546 6.81538 132.978 6.59375 132.352 6.59375V8.59375ZM132.85 8.80218C133.032 8.93009 133.109 9.05583 133.145 9.1878L135.073 8.65595C134.901 8.03271 134.523 7.53345 134.001 7.16657L132.85 8.80218ZM133.154 9.21707L135.713 17.4983L137.623 16.9079L135.065 8.62668L133.154 9.21707ZM135.714 17.5028C136.358 19.5522 137.049 21.1206 137.833 22.0621L139.37 20.7817C138.852 20.1607 138.254 18.9165 137.622 16.9035L135.714 17.5028ZM137.84 22.0695C138.664 23.039 139.71 23.5938 140.945 23.5938V21.5938C140.384 21.5938 139.868 21.3672 139.364 20.7742L137.84 22.0695ZM141.907 22.8672L145.794 9.19533L143.87 8.64842L139.983 22.3203L141.907 22.8672ZM145.796 9.1878C145.846 9.00635 145.935 8.87079 146.074 8.75534L144.801 7.21341C144.341 7.59275 144.026 8.08219 143.868 8.65595L145.796 9.1878ZM146.078 8.7526C146.225 8.62949 146.348 8.59375 146.473 8.59375V6.59375C145.842 6.59375 145.275 6.81843 144.797 7.21615L146.078 8.7526ZM146.473 8.59375H150.594V6.59375H146.473V8.59375ZM150.594 8.59375C150.652 8.59375 150.653 8.60319 150.622 8.58973C150.606 8.58285 150.586 8.57174 150.565 8.5554C150.544 8.53904 150.528 8.52162 150.516 8.50625L152.116 7.30625C151.724 6.78363 151.147 6.59375 150.594 6.59375V8.59375ZM150.516 8.50625C150.539 8.53669 150.555 8.5603 150.565 8.57726C150.576 8.59439 150.579 8.60198 150.578 8.60047C150.578 8.59911 150.571 8.58454 150.565 8.55794C150.558 8.53107 150.551 8.48863 150.551 8.43359H152.551C152.551 7.95822 152.309 7.56369 152.116 7.30625L150.516 8.50625ZM150.551 8.43359C150.551 8.46597 150.549 8.48666 150.548 8.49742C150.547 8.50837 150.546 8.50507 150.55 8.4909L152.473 9.04035C152.532 8.83357 152.551 8.62471 152.551 8.43359H150.551ZM150.549 8.49554L145.432 26.7377L147.357 27.2779L152.475 9.03571L150.549 8.49554ZM145.432 26.7362C144.537 29.9069 143.462 32.0194 142.282 33.2215L143.71 34.6222C145.239 33.0639 146.429 30.5671 147.357 27.2795L145.432 26.7362ZM142.279 33.225C141.146 34.3905 139.684 34.9922 137.801 34.9922V36.9922C140.163 36.9922 142.164 36.2137 143.713 34.6188L142.279 33.225ZM137.801 34.9922C135.68 34.9922 134.254 34.9126 133.463 34.773L133.115 36.7426C134.095 36.9155 135.677 36.9922 137.801 36.9922V34.9922ZM133.465 34.7735C133.058 34.7006 132.763 34.6245 132.561 34.5524C132.335 34.4717 132.323 34.4293 132.375 34.4853L130.921 35.8585C131.196 36.1488 131.567 36.3213 131.888 36.4359C132.233 36.5591 132.647 36.6588 133.113 36.7421L133.465 34.7735ZM132.356 34.4648C132.326 34.4351 132.32 34.4197 132.32 34.4194C132.319 34.4183 132.319 34.4169 132.318 34.414C132.318 34.4109 132.316 34.4036 132.316 34.3906H130.316C130.316 34.9684 130.542 35.4796 130.941 35.879L132.356 34.4648ZM132.316 34.3906V32.2422H130.316V34.3906H132.316ZM132.316 32.2422C132.316 32.1207 132.346 32.0811 132.375 32.0499L130.921 30.6767C130.508 31.1142 130.316 31.6605 130.316 32.2422H132.316ZM132.356 32.0704C132.366 32.0604 132.386 32.0312 132.508 32.0312V30.0312C131.927 30.0312 131.374 30.2235 130.941 30.6562L132.356 32.0704ZM132.508 32.0312H133.23V30.0312H132.508V32.0312ZM153.27 7.94531L153.977 8.65242L153.27 7.94531ZM172.801 7.94531L172.074 8.63194L172.084 8.64232L172.094 8.65242L172.801 7.94531ZM171.746 13.5117L171.039 12.8046L171.035 12.8085L171.746 13.5117ZM161.102 24.2734L160.391 23.5702L158.706 25.2734H161.102V24.2734ZM172.957 24.625L172.23 25.3116L172.25 25.3324L172.27 25.352L172.957 24.625ZM172.957 28.668L172.25 27.9609L172.957 28.668ZM153.27 28.668L152.543 29.3546L152.562 29.3754L152.583 29.395L153.27 28.668ZM154.344 23.082L155.051 23.7891L155.059 23.7809L155.067 23.7725L154.344 23.082ZM164.617 12.3203L165.341 13.0108L166.954 11.3203H164.617V12.3203ZM153.27 11.9883L152.543 12.6749L152.562 12.6957L152.583 12.7153L153.27 11.9883ZM153.938 11.1289V8.80469H151.938V11.1289H153.938ZM153.938 8.80469C153.938 8.6827 153.967 8.66245 153.977 8.65242L152.562 7.23821C152.13 7.67088 151.938 8.22355 151.938 8.80469H153.938ZM153.977 8.65242C154.011 8.61784 154.044 8.59375 154.148 8.59375V6.59375C153.55 6.59375 152.997 6.80404 152.562 7.23821L153.977 8.65242ZM154.148 8.59375H171.941V6.59375H154.148V8.59375ZM171.941 8.59375C172.005 8.59375 172.033 8.60399 172.041 8.60719C172.047 8.60961 172.057 8.61388 172.074 8.63194L173.528 7.25869C173.099 6.80502 172.54 6.59375 171.941 6.59375V8.59375ZM172.094 8.65242C172.104 8.66245 172.133 8.6827 172.133 8.80469H174.133C174.133 8.22355 173.941 7.67088 173.508 7.23821L172.094 8.65242ZM172.133 8.80469V10.6797H174.133V8.80469H172.133ZM172.133 10.6797C172.133 11.2945 171.845 11.999 171.039 12.8046L172.453 14.2188C173.497 13.1755 174.133 11.992 174.133 10.6797H172.133ZM171.035 12.8085L160.391 23.5702L161.813 24.9767L172.457 14.2149L171.035 12.8085ZM161.102 25.2734H172.098V23.2734H161.102V25.2734ZM172.098 25.2734C172.161 25.2734 172.19 25.2837 172.198 25.2869C172.203 25.2893 172.213 25.2936 172.23 25.3116L173.684 23.9384C173.256 23.4847 172.697 23.2734 172.098 23.2734V25.2734ZM172.27 25.352C172.288 25.3691 172.293 25.3786 172.295 25.3845C172.298 25.3923 172.309 25.4209 172.309 25.4844H174.309C174.309 24.8854 174.097 24.3265 173.644 23.898L172.27 25.352ZM172.309 25.4844V27.8086H174.309V25.4844H172.309ZM172.309 27.8086C172.309 27.8883 172.292 27.9185 172.25 27.9609L173.664 29.3751C174.09 28.9487 174.309 28.406 174.309 27.8086H172.309ZM172.25 27.9609C172.24 27.9709 172.22 28 172.098 28V30C172.679 30 173.231 29.8077 173.664 29.3751L172.25 27.9609ZM172.098 28H154.148V30H172.098V28ZM154.148 28C154.027 28 153.987 27.9704 153.956 27.941L152.583 29.395C153.02 29.8082 153.567 30 154.148 30V28ZM153.997 27.9813C153.96 27.9426 153.938 27.9059 153.938 27.8086H151.938C151.938 28.3883 152.136 28.9246 152.543 29.3546L153.997 27.9813ZM153.938 27.8086V25.9141H151.938V27.8086H153.938ZM153.938 25.9141C153.938 25.319 154.226 24.6144 155.051 23.7891L153.637 22.3749C152.587 23.4247 151.938 24.6081 151.938 25.9141H153.938ZM155.067 23.7725L165.341 13.0108L163.894 11.6298L153.62 22.3915L155.067 23.7725ZM164.617 11.3203H154.148V13.3203H164.617V11.3203ZM154.148 11.3203C154.027 11.3203 153.987 11.2907 153.956 11.2613L152.583 12.7153C153.02 13.1286 153.567 13.3203 154.148 13.3203V11.3203ZM153.997 11.3017C153.96 11.2629 153.938 11.2262 153.938 11.1289H151.938C151.938 11.7087 152.136 12.2449 152.543 12.6749L153.997 11.3017ZM178.523 26.5391L177.835 27.2648L178.523 26.5391ZM178.543 10.0938L179.231 10.8193L179.234 10.817L178.543 10.0938ZM195.32 10.0156L194.637 10.7461L194.64 10.7484L195.32 10.0156ZM197.977 20.0352L197.269 19.328L197.977 20.0352ZM182.41 20.3672V19.3672H181.326L181.413 20.4482L182.41 20.3672ZM183.777 23.8633L183.095 24.5944L183.101 24.5999L183.777 23.8633ZM193.484 22.5938V21.5937L193.47 21.5938L193.484 22.5938ZM197.254 22.9453L196.527 23.6319L196.547 23.6527L196.567 23.6723L197.254 22.9453ZM186.922 29.3906L186.924 28.3906H186.922V29.3906ZM182.371 16.2461L181.372 16.1953L181.319 17.2461H182.371V16.2461ZM191.453 16.2461V17.2461H192.496L192.452 16.2038L191.453 16.2461ZM179.211 25.8134C177.459 24.1522 176.516 21.7134 176.516 18.3359H174.516C174.516 22.0939 175.577 25.1239 177.835 27.2648L179.211 25.8134ZM176.516 18.3359C176.516 14.9465 177.465 12.4941 179.231 10.8193L177.855 9.36817C175.584 11.5215 174.516 14.564 174.516 18.3359H176.516ZM179.234 10.817C181.017 9.11374 183.542 8.20312 186.941 8.20312V6.20312C183.179 6.20312 180.105 7.21959 177.852 9.3705L179.234 10.817ZM186.941 8.20312C190.348 8.20312 192.868 9.09187 194.637 10.746L196.003 9.2852C193.762 7.18938 190.696 6.20312 186.941 6.20312V8.20312ZM194.64 10.7484C196.389 12.3722 197.328 14.7502 197.328 18.043H199.328C199.328 14.3566 198.262 11.383 196.001 9.28283L194.64 10.7484ZM197.328 18.043V19.1562H199.328V18.043H197.328ZM197.328 19.1562C197.328 19.2605 197.304 19.2935 197.269 19.328L198.684 20.7423C199.118 20.3081 199.328 19.7552 199.328 19.1562H197.328ZM197.269 19.328C197.259 19.3381 197.239 19.3672 197.117 19.3672V21.3672C197.698 21.3672 198.251 21.1749 198.684 20.7423L197.269 19.328ZM197.117 19.3672H182.41V21.3672H197.117V19.3672ZM181.413 20.4482C181.554 22.1763 182.059 23.6271 183.095 24.5943L184.46 23.1322C183.934 22.6412 183.527 21.7612 183.407 20.2862L181.413 20.4482ZM183.101 24.5999C184.164 25.5756 185.728 25.957 187.566 25.957V23.957C185.941 23.957 184.979 23.6093 184.454 23.1266L183.101 24.5999ZM187.566 25.957C189.391 25.957 190.967 25.5548 191.896 24.4177L190.347 23.1526C189.999 23.578 189.205 23.957 187.566 23.957V25.957ZM191.896 24.4177C192.363 23.8455 192.881 23.6022 193.498 23.5937L193.47 21.5938C192.213 21.6113 191.155 22.1623 190.347 23.1526L191.896 24.4177ZM193.484 23.5938H196.395V21.5938H193.484V23.5938ZM196.395 23.5938C196.458 23.5938 196.487 23.604 196.494 23.6072C196.5 23.6096 196.51 23.6139 196.527 23.6319L197.981 22.2587C197.552 21.805 196.994 21.5938 196.395 21.5938V23.5938ZM196.567 23.6723C196.585 23.6894 196.59 23.6989 196.592 23.7048C196.595 23.7126 196.605 23.7412 196.605 23.8047H198.605C198.605 23.2057 198.394 22.6468 197.941 22.2183L196.567 23.6723ZM196.605 23.8047C196.605 24.5736 196.425 25.1994 196.094 25.7192C195.761 26.2429 195.239 26.7163 194.471 27.1177C192.906 27.9361 190.43 28.397 186.924 28.3906L186.92 30.3906C190.536 30.3972 193.402 29.9337 195.398 28.8901C196.411 28.3605 197.224 27.6685 197.782 26.7925C198.341 25.9126 198.605 24.9043 198.605 23.8047H196.605ZM186.922 28.3906C183.505 28.3906 180.98 27.4903 179.211 25.8134L177.835 27.2648C180.077 29.39 183.152 30.3906 186.922 30.3906V28.3906ZM182.371 17.2461H191.453V15.2461H182.371V17.2461ZM192.452 16.2038C192.381 14.5249 191.926 13.0957 190.936 12.088C189.935 11.0702 188.541 10.6367 186.922 10.6367V12.6367C188.194 12.6367 189 12.9715 189.51 13.4901C190.029 14.0189 190.395 14.8944 190.454 16.2884L192.452 16.2038ZM186.922 10.6367C185.308 10.6367 183.917 11.0711 182.914 12.0865C181.922 13.0911 181.458 14.517 181.372 16.1953L183.37 16.2969C183.441 14.9023 183.813 14.0234 184.338 13.4916C184.852 12.9706 185.658 12.6367 186.922 12.6367V10.6367Z" fill="black"/>
</g>
<defs>
<filter id="filter0_d_1_11" x="0.890625" y="0.992188" width="201.438" height="43" filterUnits="userSpaceOnUse" color-interpolation-filters="sRGB">
<feFlood flood-opacity="0" result="BackgroundImageFix"/>
<feColorMatrix in="SourceAlpha" type="matrix" values="0 0 0 0 0 0 0 0 0 0 0 0 0 0 0 0 0 0 127 0" result="hardAlpha"/>
<feOffset dy="4"/>
<feGaussianBlur stdDeviation="2"/>
<feComposite in2="hardAlpha" operator="out"/>
<feColorMatrix type="matrix" values="0 0 0 0 0 0 0 0 0 0 0 0 0 0 0 0 0 0 0.25 0"/>
<feBlend mode="normal" in2="BackgroundImageFix" result="effect1_dropShadow_1_11"/>
<feBlend mode="normal" in="SourceGraphic" in2="effect1_dropShadow_1_11" result="shape"/>
</filter>
</defs>
</svg>
